<svg xmlns="http://www.w3.org/2000/svg" width="16" height="16" viewBox="0 0 16 16" fill="none" aria-hidden="true">
  <rect x="1.5" y="1.5" width="13" height="13" rx="3" fill="#5865f2"/>
  <path d="M5.2 12.3c1.1.8 2.2 1.1 2.8 1.1s1.7-.3 2.8-1.1c.9-.1 1.5-.6 1.6-1.5.2-1.6.2-2.8-.1-4.6-.1-.8-.6-1.3-1.4-1.4-.6-.1-1.2-.1-1.8 0l-.2.3c-.4-.1-.7-.1-1.1 0l-.2-.3c-.6-.1-1.2-.1-1.8 0-.8.1-1.3.6-1.4 1.4-.3 1.8-.3 3 0 4.6.1.9.7 1.4 1.6 1.5Z" fill="#5865f2"/>
  <circle cx="6.2" cy="8.7" r="1.0" fill="#ffffff"/>
  <circle cx="9.8" cy="8.7" r="1.0" fill="#ffffff"/>
</svg>

